<svg width="163" height="16" viewBox="0 0 163 16" fill="none" xmlns="http://www.w3.org/2000/svg">
<path d="M25.1665 3.72952L27.8987 9.59433H22.415L25.1471 3.72952H25.1665ZM21.2944 12.1421H29.0386L30.4935 15.2819H33.6773L26.6213 0.688372H23.7512L16.6952 15.2819H19.8395L21.2944 12.1421ZM118.055 3.72952L120.788 9.59433H115.303L118.035 3.72952H118.055ZM114.183 12.1421H121.926L123.381 15.2819H126.566L119.509 0.688372H116.639L109.584 15.2819H112.728L114.183 12.1421ZM85.3511 7.95563C85.3511 12.4187 88.6331 15.5982 93.4286 15.5982C96.5537 15.5982 98.2443 14.4327 99.7193 13.2089L98.0874 11.0752C97.0852 11.8461 95.669 12.9121 93.4882 12.9121C90.4613 12.9121 88.4166 10.8788 88.4166 7.95563C88.4166 5.03332 90.4412 3.05813 93.3699 3.05813C95.3359 3.05813 96.6327 3.68985 97.7139 4.59819L99.3255 2.4459C97.8121 1.18177 96.0436 0.37207 93.3701 0.37207C88.7709 0.37207 85.3513 3.53223 85.3513 7.95563M142.408 2.32796C140.659 1.06365 139.047 0.37207 136.354 0.37207C131.676 0.37207 128.237 3.49256 128.237 7.95563C128.237 12.438 131.597 15.5982 136.354 15.5982C139.382 15.5982 141.465 14.571 143.195 12.972V7.36288H136.158V9.85166H140.442V11.7863C139.834 12.2806 138.575 12.9721 136.433 12.9721C133.387 12.9721 131.263 10.879 131.263 7.95581C131.263 5.0335 133.407 3.03812 136.354 3.03812C138.399 3.03812 139.736 3.7104 140.797 4.48024L142.408 2.32796ZM8.95068 8.94224C9.6584 8.94224 10.1504 9.04196 10.5625 9.35719C10.9561 9.65419 11.2305 10.1281 11.2305 10.7791C11.2305 11.4312 10.9561 11.9246 10.5625 12.2212C10.1504 12.5368 9.6584 12.6162 8.95068 12.6162H3.19252V8.94207L8.95068 8.94224ZM8.3808 3.35424C9.2068 3.35424 9.63919 3.51186 9.93373 3.78849C10.2091 4.08549 10.3659 4.46076 10.3659 4.87482C10.3659 5.28976 10.2091 5.66503 9.93373 5.96114C9.63919 6.2367 9.2068 6.39539 8.3808 6.39539H3.19252V3.35424H8.3808ZM50.797 15.2819H63.0616V12.616H53.6669V8.94224H60.7028V6.39539H53.6669V3.35424H62.6687V0.688372H50.797V15.2819ZM154.241 3.72952L156.973 9.59433H151.489L154.221 3.72952H154.241ZM150.369 12.1421H158.113L159.567 15.2819H162.751L155.695 0.688372H152.826L145.769 15.2819H148.914L150.369 12.1421ZM106.262 0.688372H103.391V15.2819H106.262V0.688372ZM46.8267 12.616H39.8687V0.688372H36.9987V15.2819H46.8266L46.8267 12.616ZM70.3738 10.8585C70.3738 7.75835 70.2361 5.0335 70.2361 5.0335H70.2756C70.2756 5.0335 71.6119 6.94865 74.0497 9.9696L78.3348 15.2819H81.145V0.688372H78.2752V5.19112C78.2752 8.29123 78.3926 11.0364 78.3926 11.0364H78.3542C78.3542 11.0364 77.017 9.12112 74.5994 6.07927L70.3149 0.688372H67.5038V15.2819H70.3736L70.3738 10.8585ZM9.14722 15.2819C10.7983 15.2819 11.8006 14.927 12.5871 14.3146C13.6288 13.505 14.2777 12.2407 14.2777 10.7201C14.2777 8.56786 12.8624 7.42257 11.683 7.12574V7.08696C12.8036 6.57338 13.4131 5.40788 13.4131 4.26258C13.4131 2.95949 12.9019 2.05133 12.096 1.47859C11.3095 0.925331 10.2485 0.688372 8.40108 0.688372H0.32251V15.2819H9.14722Z" fill="#141414"/>
</svg>
