<svg width="72" height="36" viewBox="0 0 72 36" fill="none" xmlns="http://www.w3.org/2000/svg">
<path d="M39.2373 0.286014C39.0048 0.322067 38.7813 1.18274 38.332 1.63111C38.0034 1.9547 37.5932 1.93446 37.3753 2.33451C37.2926 2.48396 37.3194 2.73908 37.2256 2.98403C37.0423 3.47393 36.3963 3.51773 36.3963 4.05151C36.3941 4.62795 36.935 4.73805 37.4033 5.14705C37.7687 5.47629 37.8045 5.70325 38.247 5.86279C38.6249 5.99208 39.187 5.56953 39.6933 5.72124C40.1091 5.84601 40.5069 5.93587 40.6008 6.36511C40.6834 6.76065 40.5952 7.37412 40.0912 7.30338C39.9212 7.28427 39.1847 7.0348 38.2795 7.13142C37.1875 7.2562 35.9414 7.61455 35.8196 8.83834C35.7525 9.52262 36.5941 10.3294 37.4066 10.1654C37.9687 10.0541 37.7028 9.38785 38.009 9.06418C38.4102 8.64961 40.6834 10.5115 42.7969 10.5115C43.6865 10.5115 44.3481 10.2856 45.0054 9.59344C45.0667 9.54061 45.1417 9.42713 45.2367 9.42035C45.3261 9.42713 45.4825 9.51585 45.534 9.55408C47.2361 10.9294 48.5225 13.6881 54.7778 13.7207C55.6574 13.7251 56.6598 14.1477 57.4779 14.8982C58.2078 15.577 58.6347 16.632 59.0493 17.7029C59.6752 19.3098 60.7973 20.8728 62.4983 22.6122C62.5911 22.7055 63.9915 23.8 64.1032 23.882C64.1211 23.8932 64.2239 24.1404 64.1882 24.2786C64.1469 25.3214 63.996 28.3541 66.2446 28.4912C66.7945 28.5193 66.6502 28.1305 66.6502 27.8631C66.6492 27.335 66.553 26.8102 66.8303 26.2697C67.2091 25.5259 66.0267 25.1831 66.0613 23.5752C66.0859 22.3762 65.0845 22.5807 64.576 21.6672C64.2831 21.1379 64.0227 20.8571 64.0418 20.2097C64.1558 16.5669 63.2706 14.1735 62.8291 13.5858C62.485 13.142 62.1999 12.9656 62.5151 12.7599C64.3916 11.5138 64.8174 10.3541 64.8174 10.3541C65.8154 7.99557 66.7129 5.84142 67.9501 4.89315C68.1993 4.69756 68.8386 4.21782 69.2309 4.029C70.3854 3.48175 70.9934 3.15034 71.3287 2.82215C71.8595 2.30192 72.2786 1.21759 71.7701 0.560244C71.1375 -0.251072 70.0434 0.392802 69.5606 0.680421C66.1105 2.73908 65.602 6.37068 64.4072 8.45627C63.4539 10.1226 61.9038 11.3463 60.5179 11.4463C59.4785 11.5239 58.3587 11.3126 57.2433 10.8205C54.5308 9.6249 53.0466 8.08098 52.6968 7.80796C51.9681 7.24273 46.3107 1.65918 41.7273 1.43108C41.7273 1.43108 41.1585 0.286095 41.0154 0.26698C40.6801 0.224232 40.337 0.951263 40.0912 1.03563C39.8598 1.11306 39.4709 0.247784 39.2373 0.286014ZM19.0597 33.6107C18.6283 33.6005 18.2618 33.2444 18.2618 32.8039L18.2629 18.4299H13.551V34.2747C13.551 35.0512 14.1768 35.685 14.9446 35.685H23.1804C23.9538 35.685 24.5719 35.0512 24.5719 34.2747V18.4299H19.8645L19.86 32.8039C19.86 33.2444 19.4933 33.6005 19.0597 33.6107ZM34.8361 18.4299H27.7045C26.8608 18.4299 26.1734 19.1198 26.1734 19.9772V35.6849H30.8896V21.2763C30.893 20.8347 31.2484 20.4852 31.6866 20.4852C32.1269 20.4852 32.48 20.8268 32.4901 21.2639V35.685H37.1875V21.2638C37.1931 20.8267 37.5462 20.4851 37.9854 20.4851C38.4213 20.4851 38.7812 20.8346 38.7846 21.2762V35.685H43.5009V19.9772C43.5009 19.1198 42.8124 18.4299 41.9687 18.4299H34.8361ZM7.24533 21.3065C7.2487 20.8267 6.85979 20.4851 6.44737 20.4851H5.64716V29.2126H6.44737C6.86316 29.2126 7.24878 28.88 7.24533 28.4025V21.3065ZM10.4071 31.3487H5.64716V35.685H0.9375V18.4299H10.4374C11.2878 18.4299 11.9516 19.1244 11.9516 19.984V29.7947C11.9516 30.6555 11.2621 31.3487 10.4071 31.3487ZM59.6629 31.8263C58.7163 31.8263 57.9216 32.6488 57.9216 33.6455C57.9216 34.6456 58.7163 35.4613 59.6931 35.4613C60.6621 35.4613 61.4467 34.6456 61.4467 33.6455C61.4467 32.6465 60.6621 31.8263 59.693 31.8263H59.6629ZM61.7842 33.6399C61.7842 34.8118 60.8498 35.7648 59.6931 35.7648C58.524 35.7648 57.5853 34.8187 57.5853 33.6399C57.5853 32.4836 58.524 31.5173 59.6584 31.5173C60.8498 31.5173 61.7842 32.4545 61.7842 33.6399Z" fill="black"/>
<path d="M59.4749 33.505C59.8023 33.505 59.9745 33.3882 59.9745 33.1545C59.9745 32.9466 59.808 32.8399 59.4894 32.8399H59.3955V33.505H59.4749ZM60.6808 34.8692H60.1187L59.3955 33.9017V34.8692H58.9362V32.423H59.419C60.0751 32.423 60.4237 32.6724 60.4237 33.1489C60.4237 33.4668 60.2181 33.749 59.9309 33.8332L59.8973 33.8456L60.6808 34.8692ZM51.4079 29.216V21.2706C51.3967 20.8312 51.0447 20.4942 50.6055 20.4942C50.1707 20.4942 49.8108 20.8447 49.8075 21.283V29.216H51.4079ZM51.4079 35.685V31.3532H49.8075V35.685H45.1001V19.9772C45.1001 19.1199 45.7874 18.4299 46.6312 18.4299H54.5842C55.4303 18.4299 56.1176 19.1199 56.1176 19.9772V35.6849L51.4079 35.685Z" fill="black"/>
</svg>
