<svg width="51" height="50" viewBox="0 0 51 50" fill="none" xmlns="http://www.w3.org/2000/svg">
<path d="M49.4661 37.9811H49.4529C48.8611 37.9815 48.3819 38.465 48.3824 39.0593C48.3824 39.663 48.8525 40.1612 49.4661 40.1615C50.0681 40.1615 50.5508 39.6633 50.5508 39.0593C50.5509 38.4681 50.0682 37.9811 49.4661 37.9811ZM49.4657 40.0294C48.942 40.0294 48.4997 39.5972 48.4997 39.0592C48.4997 38.5345 48.9421 38.1127 49.4657 38.1127C49.9839 38.1155 50.4039 38.5375 50.407 39.0592C50.407 39.5972 49.9758 40.0294 49.4657 40.0294ZM20.3917 40.2543H22.331V38.0058H20.3917V40.2543ZM20.3917 49.7952H22.331V40.8702H20.3917V49.7952ZM40.2725 41.7286C39.5497 41.1843 38.6346 40.8586 37.6462 40.8586C35.1653 40.8586 33.155 42.8776 33.155 45.357C33.155 47.8486 35.1653 49.8678 37.6462 49.8678C38.6345 49.8678 39.5495 49.5534 40.2725 48.9969L40.2962 49.7951H42.2225V40.8701H40.2725V41.7286ZM37.7028 47.8689H37.6927C36.3101 47.8689 35.2025 46.7573 35.2025 45.3571C35.2025 43.9687 36.3101 42.8459 37.6927 42.8459C39.0632 42.8459 40.1839 43.9687 40.1839 45.3571C40.1899 46.7385 39.079 47.8633 37.7028 47.8689ZM47.412 44.3418C47.0152 44.3167 45.3897 44.2322 45.3897 43.2763C45.3897 42.6362 46.4624 42.4679 46.9552 42.4679C47.8929 42.4679 48.484 42.9982 48.5927 43.7374L50.5429 43.7234C50.496 41.9952 48.9908 40.8098 47.0038 40.8209C44.6069 40.8348 43.3903 42.0674 43.3903 43.6277C43.3903 44.4977 43.8723 45.0062 44.4373 45.4534C44.9427 45.8761 46.1609 46.0952 46.7978 46.1676C47.9306 46.288 48.713 46.4701 48.713 47.3163C48.713 47.8486 47.9531 48.307 46.8832 48.307C46.2922 48.307 45.2442 47.9325 45.1364 46.9277H43.2214C43.4506 49.0582 45.1841 50 46.8949 50C47.6664 50 48.9304 49.819 49.5449 49.3718C50.2666 48.8395 50.7724 48.0907 50.7724 47.0864C50.7725 45.7323 50.0144 44.5835 47.412 44.3418ZM7.2334 41.7286C6.51068 41.1843 5.5954 40.8586 4.60717 40.8586C2.12618 40.8586 0.116028 42.8776 0.116028 45.357C0.116028 47.8486 2.12618 49.8678 4.60717 49.8678C5.5954 49.8678 6.51035 49.5534 7.2334 48.9969L7.25706 49.7951H9.18347V40.8701H7.2334V41.7286ZM4.66376 47.8689H4.65373C3.2711 47.8689 2.16336 46.7573 2.16336 45.3571C2.16336 43.9687 3.2711 42.8459 4.65373 42.8459C6.02414 42.8459 7.14486 43.9687 7.14486 45.3571C7.15064 46.7385 6.03985 47.8633 4.66376 47.8689ZM30.3827 38.0168V41.7286C29.6599 41.1843 28.7446 40.8586 27.7565 40.8586C25.2755 40.8586 23.2653 42.8776 23.2653 45.357C23.2653 47.8486 25.2755 49.8678 27.7565 49.8678C28.7446 49.8678 29.6594 49.5534 30.3827 48.9969L30.4064 49.7951H32.3326V38.0167L30.3827 38.0168ZM27.8131 47.8689H27.8029C26.4203 47.8689 25.3126 46.7573 25.3126 45.3571C25.3126 43.9687 26.4203 42.8459 27.8029 42.8459C29.1733 42.8459 30.2941 43.9687 30.2941 45.3571C30.2998 46.7385 29.1889 47.8633 27.8131 47.8689ZM17.1782 38.0168V41.7286C16.4555 41.1843 15.5402 40.8586 14.5519 40.8586C12.071 40.8586 10.0608 42.8776 10.0608 45.357C10.0608 47.8486 12.0711 49.8678 14.5519 49.8678C15.5401 49.8678 16.455 49.5534 17.1782 48.9969L17.2018 49.7951H19.1282V38.0167L17.1782 38.0168ZM14.6085 47.8689H14.5984C13.2158 47.8689 12.108 46.7573 12.108 45.3571C12.108 43.9687 13.2158 42.8459 14.5984 42.8459C15.9688 42.8459 17.0895 43.9687 17.0895 45.3571C17.0954 46.7385 15.9846 47.8633 14.6085 47.8689ZM25.6587 21.2954H32.0608C32.2131 20.1334 32.2955 18.9497 32.2955 17.746C32.2955 10.9458 29.7873 4.73875 25.6587 0C21.53 4.73875 19.0218 10.9458 19.0218 17.746C19.0218 18.9497 19.1043 20.1334 19.2564 21.2954H25.6587ZM22.597 31.1826C23.4794 32.72 24.5027 34.1658 25.6587 35.4926C26.8148 34.1657 27.838 32.72 28.7202 31.1826H25.6587H22.597ZM16.0325 18.6027C11.8735 13.792 6.28791 10.9475 0.443258 10.1405C0.41229 13.9479 1.24285 17.7691 2.9503 21.2955H18.0617C17.4458 20.3534 16.7679 19.4537 16.0325 18.6027ZM11.5156 31.1826C14.7482 33.3657 18.3957 34.7306 22.1527 35.2495C22.1638 33.8909 22.0602 32.5308 21.8521 31.1826H11.5156ZM35.2848 18.6027C34.5495 19.4538 33.8717 20.3534 33.2557 21.2954H48.3671C50.0745 17.769 50.905 13.9478 50.8742 10.1404C45.0294 10.9475 39.4438 13.792 35.2848 18.6027ZM29.1647 35.2495C32.9217 34.7307 36.5692 33.3657 39.8017 31.1826H29.4652C29.2571 32.5308 29.1536 33.8909 29.1647 35.2495ZM25.6587 27.3798H7.09917C7.67024 28.0011 8.27176 28.5934 8.90149 29.1545H42.4158C43.0457 28.5936 43.6472 28.0013 44.2181 27.3798H38.0717H25.6587ZM25.6587 23.3234H4.05183C4.47387 24.0213 4.92951 24.6982 5.41712 25.3515H45.9003C46.3879 24.6982 46.8435 24.0213 47.2656 23.3234H35.492H25.6587Z" fill="black"/>
</svg>
