<svg width="52" height="48" viewBox="0 0 52 48" fill="none" xmlns="http://www.w3.org/2000/svg">
<path d="M28.0126 3.28614C27.9931 3.18041 27.9797 3.07362 27.9726 2.96632C27.8686 1.46017 28.9963 0.154109 30.4941 0.0479996C31.9937 -0.0570464 33.2923 1.07826 33.397 2.58441C33.5017 4.09057 32.3735 5.39663 30.8757 5.50273C30.7809 5.50996 30.687 5.51124 30.5952 5.50763C30.5345 5.52336 30.4981 5.5308 30.4459 5.57716C30.2917 5.81872 30.838 5.77364 30.4666 6.82942C30.4666 6.82942 30.4641 6.94531 30.4229 7.0612C30.3937 7.4665 30.2386 8.66751 30.2164 9.30714C30.2953 9.39986 30.3175 9.44494 30.3089 9.6697C30.2737 9.97357 30.2044 10.7182 30.0929 11.1954C29.9984 11.6043 29.8323 11.6824 29.6985 11.7825C29.5102 12.6297 29.4605 13.3314 28.9777 14.3604C28.9339 15.1404 28.8793 15.3528 28.7167 15.7337C28.6985 16.8821 28.7774 17.0531 28.0067 18.8716C27.8077 19.7222 27.997 20.3106 28.207 21.1943C28.4219 22.1026 29.0179 22.4821 29.1065 23.4122C29.3152 25.6027 29.263 27.0939 28.7956 28.8115L29.2036 29.7828C29.7099 30.0163 30.9662 30.6547 30.2695 31.6651C31.2507 32.1836 32.7326 32.7341 33.9551 33.7854C34.4468 34.1971 34.9663 34.646 35.4324 35.1729C36.3199 35.312 36.2251 35.3828 36.8829 35.7891C38.8171 36.9814 41.9187 39.3467 43.7167 41.0212C44.0263 41.2031 44.1526 41.334 44.4025 41.4659C44.4417 41.5412 44.4523 41.5586 44.4436 41.579C44.3577 41.7976 44.3609 41.804 44.2833 41.9781C44.3803 42.0859 44.5612 42.1867 44.6693 42.2812C44.7704 42.3128 44.7703 42.2641 44.9438 42.2214C45.1694 42.4338 45.4491 42.605 45.5493 42.595C45.8553 42.517 45.8031 42.5806 46.0618 42.2897C46.1548 42.1933 46.3107 42.2909 46.3107 42.2909C46.4078 42.1763 46.6165 41.9479 46.8949 41.7829C47.1169 41.6513 47.5408 41.6366 47.5408 41.6366C47.6827 41.6379 47.6561 41.7842 47.6438 41.8318C47.4835 41.915 47.1438 42.0064 46.953 42.1478C46.5376 42.5797 46.2124 43.1623 46.2124 43.1623C47.0486 43.0475 47.5624 43.2561 48.2592 43.1757C48.6393 43.1536 48.9198 43.1783 49.3189 42.8878C49.3189 42.8878 49.7025 42.6133 50.0462 42.4676C50.3799 42.3213 50.6968 42.3994 50.9906 42.6139C51.198 42.8493 51.323 42.8506 51.0075 43.183C50.8935 43.3121 50.7283 43.4562 50.5185 43.665C50.1494 44.0316 49.6526 44.5203 49.1382 44.9247C48.6173 45.3337 48.0262 45.7009 47.6571 45.8693C46.7261 46.5419 46.9458 46.366 46.2138 47.0327C46.1214 47.1158 45.8763 47.2645 45.7574 47.3438C45.4687 47.5343 45.3786 47.3755 45.1904 47.0265C45.1904 47.0265 45.1043 46.8962 44.9622 46.6176C44.8069 46.3137 44.6904 45.9663 44.7376 45.972C44.5641 45.9499 43.7833 45.0296 43.7814 44.8322C43.6162 44.7942 42.9119 44.1086 42.8867 43.9776L42.2628 43.4747C41.549 43.6238 41.3853 43.1781 39.5 41.8331C39.2849 41.8293 38.9526 41.7125 38.4763 41.3574C37.6257 40.6723 35.5847 39.1223 35.2387 38.9452C34.8671 38.7549 34.4232 38.5756 34.1507 38.3496C33.7428 38.2741 33.5196 38.2311 33.3155 38.1739C33.107 38.1165 32.9173 38.0423 32.3894 37.9713C31.5301 37.8639 30.6388 37.5062 29.7903 37.0793C29.3886 36.8879 29.0388 36.7903 28.693 36.6408C27.9172 36.3114 27.2521 36.0148 26.7366 35.895C26.5399 35.8755 25.6051 35.5935 25.1149 35.3058C24.9448 35.2178 24.8465 35.1336 24.7348 35.1078C24.4774 35.0483 24.3122 35.1506 24.1959 35.1899C23.5671 35.5193 22.9783 35.8038 22.4343 36.0981C21.928 36.3703 21.4618 36.6531 20.9678 36.9391C20.5221 37.1979 20.0074 37.4418 19.4782 37.6959C19.4782 37.6959 17.9691 38.4563 17.1449 38.7519C16.4298 39.3388 14.9682 40.3542 14.0761 40.8571C13.6342 41.0682 12.776 41.6149 12.38 41.7372C12.1542 41.9201 11.3494 42.4974 10.7193 42.9735C10.2325 43.3397 9.86468 43.6485 9.86468 43.6485C9.5819 43.9034 9.60115 44.0244 9.06352 43.7948C8.9142 43.9181 8.79893 43.9949 8.70291 44.0657C8.3146 44.3489 8.28161 44.2806 8.13969 44.2732C7.86897 44.5088 7.83492 44.387 7.59825 44.6581C7.4428 44.9001 7.60185 44.8422 7.27402 44.9596C7.20486 44.9864 7.17208 45.0704 7.11878 45.117C6.85525 45.3351 6.85419 45.9518 6.22287 45.9958C5.8574 46.258 5.95088 46.5746 5.6717 46.5608C5.68883 46.8328 5.17764 47.2298 5.08542 47.2285C4.28046 47.5077 4.22462 46.9127 3.25828 47.3567C3.13328 47.4144 2.94991 47.5732 2.70838 47.6191C2.28348 47.6997 1.76996 47.6153 1.45673 47.3714C0.963721 46.9893 0.509843 46.2521 0.509843 46.2521C0.353122 45.8797 0.444278 45.6443 0.933477 45.2924C1.13736 45.1621 1.17501 45.0644 1.51743 45.0408C1.68747 44.9762 1.64115 45.0751 1.94487 44.9656C2.12083 44.902 2.12084 44.9473 2.47531 44.9169C2.55652 44.8618 2.67073 44.8422 2.82365 44.7923C3.1041 44.6993 3.37735 44.5958 3.37735 44.5958C3.37735 44.5958 3.44884 44.5237 3.7185 44.5494C3.94671 44.4554 4.18105 44.3159 4.30118 44.2732C4.27073 43.9098 4.30964 43.9268 4.47715 43.7805C4.6859 43.5996 4.72355 43.6291 4.879 43.7412C4.94457 43.7031 4.97608 43.6901 4.96889 43.6348C4.9433 43.4456 4.78192 43.3565 4.83057 42.9393C4.75887 42.7722 4.65333 42.5659 4.67638 42.4413C4.71044 42.3069 4.74322 42.242 4.82443 42.1993C4.91073 42.1531 4.93864 42.2155 4.98475 42.2675C5.06723 42.3641 5.13407 42.6499 5.13407 42.6499C5.16326 42.9722 5.26266 43.3897 5.57949 43.1541C5.76645 42.9635 5.80283 42.456 6.18395 42.5646L6.45594 42.8023C6.68669 42.5842 6.69768 42.5842 6.83601 42.4964C6.83601 42.4964 6.61985 42.2767 6.80936 42.1057C6.93922 41.9896 7.09573 41.9065 7.37385 41.5967C8.13736 40.7484 8.52948 40.3735 9.35518 39.6899C11.0025 38.3277 12.8769 37.3723 14.0678 36.8972C14.4561 36.4016 14.8339 36.0722 15.6957 35.989C16.7202 34.2496 18.6821 32.6962 19.1326 32.4485C19.4991 31.7806 19.6582 31.8516 20.1376 31.7174C20.5175 31.4112 20.6038 31.4112 20.7738 31.0914C20.939 30.4314 20.3927 28.6675 21.7873 28.5784C22.0836 28.1576 22.0096 28.2586 22.3398 27.8607C22.1164 27.3066 22.0242 26.843 21.9635 26.4437C21.9525 26.3973 21.41 26.0129 21.564 25.511C21.3335 25.2352 20.9024 24.5915 20.7677 24.29C20.7059 24.2913 20.6548 24.2679 20.5869 24.2585C20.5164 24.2473 20.4289 24.2513 20.3307 24.2428C20.1135 24.8063 19.8769 24.8482 19.4907 24.9726C18.8012 26.45 18.5584 27.0754 16.6075 28.2969C15.833 29.1687 15.5853 30.1401 15.5889 30.1256C15.4555 30.4135 15.5026 30.8165 15.5731 31.0325C15.4711 31.3523 15.4978 31.384 15.4978 31.384C15.5403 31.5048 15.6509 31.6647 15.7867 31.6987C16.021 31.761 16.2553 31.751 16.2418 32.0134C16.2103 32.3418 15.7818 32.288 15.579 32.2514C14.7983 32.1268 15.0449 31.6154 14.5458 31.7861C14.1634 32.0377 14.0202 32.7798 13.3961 32.6835C13.3136 32.6286 13.339 32.4664 13.3948 32.3492C13.4824 32.1661 13.6376 32.0147 13.5454 31.946C13.1384 32.077 12.7321 32.2101 12.3265 32.3454C11.9441 32.4502 11.5252 32.2586 11.9016 32.0058C12.0765 31.9375 12.3265 31.8518 12.6349 31.6532C12.6349 31.6532 12.7937 31.4359 12.4892 31.5446C12.1565 31.6641 11.666 31.7385 11.3141 31.6996C11.3141 31.6996 10.5844 31.6033 10.4909 31.5456C10.3962 31.488 10.3101 31.2613 10.5383 31.2626C10.8272 31.2652 11.5508 31.1795 12.1117 31.0293C12.3824 30.9232 12.8972 30.617 13.1861 30.4728C13.1861 30.4728 13.4993 30.014 13.6717 29.9236C13.9593 29.5906 14.2021 29.3939 14.457 29.0532C14.7059 28.5367 14.9633 27.7193 15.7875 26.4535C16.1686 25.87 16.6422 25.1903 17.2382 24.5826C17.2382 24.5826 17.3924 23.61 18.1682 22.9178C18.3395 22.5125 18.5992 22.0354 18.8553 21.5935C18.9549 21.4238 19.0495 21.2762 19.1442 21.115C19.3847 20.7355 19.6372 20.0288 20.5744 19.9176C20.5744 19.9176 20.975 19.6199 21.1291 19.4084C21.3696 19.2021 21.3148 18.8812 21.5103 18.6552C21.2116 18.3624 20.4481 17.8118 20.3739 17.0465C20.295 16.2349 20.5826 15.5672 21.0708 15.073C21.6122 14.5286 22.1828 14.2564 22.8759 14.2979C23.7414 14.4272 23.9053 14.7153 24.1809 15.0009C24.4455 15.2718 24.5438 15.0974 24.6555 15.4147C25.3816 15.6088 25.3414 15.5234 25.3352 16.0605C25.4469 16.2117 25.6339 16.3522 25.6313 16.6659C25.8754 16.1568 25.9238 16.063 26.5759 15.5027C26.7301 15.0475 26.8348 14.5996 26.9701 14.1444C27.0972 13.7233 27.2552 13.29 27.3777 12.964C27.2478 12.0437 27.5145 11.8912 27.8705 11.0844C27.8075 10.9734 27.821 10.9417 27.8476 10.7597C27.986 10.2264 28.2021 9.52085 28.3307 9.06069C28.3307 9.06069 28.3732 8.8776 28.5614 8.86421C28.7243 8.28199 28.9684 7.19814 29.0094 6.97721C29.1769 6.3682 29.0688 6.17277 28.9402 5.82978C28.899 5.7175 28.9182 5.5576 28.847 5.43299C28.6441 5.07787 28.4259 4.61644 28.2778 4.28684C28.1818 4.07696 28.03 3.28592 28.03 3.28592C27.8997 2.88211 28.0126 3.28614 28.0126 3.28614Z" fill="black"/>
</svg>
