<svg width="72" height="34" viewBox="0 0 72 34" fill="none" xmlns="http://www.w3.org/2000/svg">
<path fill-rule="evenodd" clip-rule="evenodd" d="M29.6941 15.3322L21.5239 15.6247L29.2816 16.0581L29.6941 15.3322ZM28.7168 17.0583L20.5272 17.3512L28.3138 17.7862L28.7168 17.0583ZM27.7395 18.799L19.5601 19.0877L27.3373 19.5223L27.7395 18.799ZM26.7823 20.5308L18.5927 20.8241L26.3607 21.2579L26.7823 20.5308ZM36.7936 6.61935L26.3656 6.99246L36.8233 7.57675L36.7936 6.61935ZM36.7275 4.90619L27.3597 5.23653L36.7572 5.77843L36.7275 4.90619ZM36.6607 3.25375L28.3142 3.52986L36.7009 3.99806L36.6607 3.25375ZM36.6045 1.5574L29.2885 1.80334L36.6333 2.23946L36.6045 1.5574ZM36.557 0.186035H30.194L36.5665 0.525917L36.557 0.186035ZM25.7955 22.2619L17.6256 22.5594H25.6288L25.7955 22.2619Z" fill="black"/>
<path fill-rule="evenodd" clip-rule="evenodd" d="M53.4833 0.241211H41.7092L41.3753 0.835431L47.2673 1.14973C47.3364 1.14973 47.3364 1.24825 47.2377 1.24825L41.0319 1.45677L40.4333 2.51002L46.2851 2.85754C46.3637 2.86747 46.3443 2.97592 46.2756 2.97592L40.0596 3.18138L39.4811 4.18995L45.3233 4.51608C45.4509 4.52601 45.4509 4.63485 45.3233 4.63485L39.1176 4.85367L38.5285 5.90845L44.3513 6.24414C44.4789 6.25406 44.4694 6.37245 44.3513 6.37245L38.1456 6.59471L37.5462 7.6365L43.3786 7.96225C43.4667 7.97218 43.4773 8.08102 43.3592 8.08102L25.4777 8.68326L42.4461 9.63111C42.5536 9.63111 42.5441 9.76936 42.4259 9.76936L24.5156 10.4113L41.4839 11.3588C41.5626 11.3588 41.5819 11.4871 41.4638 11.4871L23.5238 12.1386L40.4922 13.0865C40.5613 13.0964 40.6293 13.2247 40.4827 13.2346L22.5712 13.8754L39.5392 14.8229C39.5882 14.8328 39.6372 14.9611 39.5198 14.9611L30.5052 15.2842L30.5348 16.1022L38.5672 16.551C38.6257 16.5609 38.6553 16.6793 38.5471 16.6793L30.5645 16.9645L30.6036 17.8795L37.5758 18.2691C37.6442 18.279 37.6738 18.4172 37.5557 18.4172L30.6427 18.6613L30.6727 19.6653L36.6137 19.9971C36.6821 20.0067 36.7018 20.135 36.5841 20.135L30.7023 20.3462L30.7415 21.4506L35.6512 21.7248C35.7203 21.7347 35.7203 21.8535 35.622 21.8535L30.7612 22.0303L30.781 22.505H46.6299C50.8324 22.505 54.6027 19.4247 55.3099 16.976C56.0176 14.5277 56.0176 12.3162 52.6393 11.2106C54.5252 10.776 57.8043 8.63782 58.4527 5.68161C59.0407 2.99578 58.0592 0.25114 53.4833 0.241211ZM45.5113 17.3881H40.6411L43.3903 12.4911H47.0041C50.7356 12.4911 48.9283 17.3881 45.5113 17.3881ZM51.8151 6.88265C51.6578 7.47496 50.4788 8.97579 48.9872 8.97579H45.3735L47.6904 4.86895H49.5368C51.8929 4.948 51.9716 6.29072 51.8151 6.88265ZM71.3238 29.6009C71.3238 27.7033 69.7547 26.1139 67.8673 26.1139C65.9309 26.1139 64.35 27.7285 64.35 29.712C64.348 30.1786 64.438 30.641 64.6147 31.0724C64.7914 31.5038 65.0513 31.8958 65.3795 32.2257C65.7077 32.5556 66.0976 32.8169 66.5267 32.9945C66.9559 33.1722 67.4157 33.2626 67.8798 33.2605C69.3129 33.2605 70.6735 32.2749 71.078 30.9318H69.2886C68.9331 31.4985 68.4682 31.757 67.83 31.757C67.0214 31.757 66.2989 31.2025 66.0657 30.4139H71.2372C71.2991 30.0324 71.3238 29.8472 71.3238 29.6009ZM66.0171 29.1258C66.2499 28.2016 66.9853 27.6101 67.892 27.6101C68.7994 27.6101 69.5101 28.1894 69.7304 29.1258H66.0171ZM48.0908 26.4427V26.996C47.5765 26.4415 46.8313 26.1261 46.0344 26.1261C44.2697 26.1261 42.7651 27.6414 42.7651 29.6131C42.7651 31.4733 44.0961 33.1418 46.0693 33.1418C46.9395 33.1418 47.6012 32.9397 48.226 32.2252V33.1001H49.7218V26.4427H48.0908ZM46.2642 31.7307C45.7191 31.7307 45.1964 31.513 44.811 31.1255C44.4256 30.738 44.2091 30.2125 44.2091 29.6645C44.2091 29.1165 44.4256 28.5909 44.811 28.2034C45.1964 27.8159 45.7191 27.5983 46.2642 27.5983C46.8092 27.5983 47.3319 27.8159 47.7173 28.2034C48.1027 28.5909 48.3193 29.1165 48.3193 29.6645C48.3193 30.2125 48.1027 30.738 47.7173 31.1255C47.3319 31.513 46.8092 31.7307 46.2642 31.7307ZM3.52135 26.1135C2.84753 26.1135 2.33285 26.3476 1.76879 26.9269V26.2739H0.26123V33.1001H1.89148V29.8839C1.89148 29.0093 1.96479 27.6166 3.16583 27.6166C4.29318 27.6166 4.41586 28.9227 4.41586 29.7605V33.0998H6.04573V29.4401C6.04573 28.4789 5.97243 28.0233 5.7149 27.481C5.33506 26.668 4.44055 26.1135 3.52135 26.1135ZM13.6493 29.6009C13.6493 27.7033 12.0806 26.1139 10.1932 26.1139C8.25675 26.1139 6.67588 27.7285 6.67588 29.712C6.67397 30.1786 6.76396 30.6409 6.94065 31.0722C7.11735 31.5036 7.37725 31.8956 7.70537 32.2255C8.03349 32.5554 8.42333 32.8167 8.8524 32.9943C9.28147 33.172 9.74128 33.2625 10.2053 33.2605C11.6392 33.2605 12.9994 32.2749 13.4039 30.9318H11.6149C11.2593 31.4985 10.7937 31.757 10.1563 31.757C9.34764 31.757 8.62443 31.2025 8.3916 30.4139H13.563C13.625 30.0324 13.6493 29.8472 13.6493 29.6009ZM8.34298 29.1258C8.57582 28.2016 9.31118 27.6101 10.2182 27.6101C11.1253 27.6101 11.8359 28.1894 12.0566 29.1258H8.34298ZM40.4675 33.0944H42.0974V23.9886H40.4675V33.0944ZM54.0219 26.1135C53.3477 26.1135 52.8326 26.3476 52.269 26.9269V26.2739H50.7614V33.1001H52.392V29.8839C52.392 29.0093 52.4654 27.6166 53.6664 27.6166C54.7934 27.6166 54.9164 28.9227 54.9164 29.7605V33.0998H56.5463V29.4401C56.5463 28.4789 56.473 28.0233 56.2155 27.481C55.8356 26.668 54.9411 26.1135 54.0219 26.1135ZM60.6151 27.617C61.3622 27.617 61.7911 27.8637 62.196 28.5534H64.0336C63.5315 27.0873 62.245 26.1135 60.6759 26.1135C58.6905 26.1135 57.0971 27.7029 57.0971 29.6624C57.0971 31.6337 58.7026 33.2602 60.6759 33.2602C61.1791 33.2575 61.6764 33.1499 62.1362 32.9442C62.596 32.7384 63.0084 32.439 63.3472 32.0648C63.6906 31.683 63.8133 31.4611 64.0336 30.8577H62.196C61.8154 31.4489 61.3258 31.7567 60.7131 31.7567C59.5728 31.7567 58.7277 30.8695 58.7277 29.6864C58.7277 28.4919 59.5364 27.617 60.6151 27.617ZM19.8793 30.4388L18.725 26.2742H17.4134L16.2466 30.4388L14.8666 26.2742H13.4286L15.6954 33.1001H16.7396L18.0633 28.6771L19.3498 33.1001H20.4457L22.6194 26.2742H21.2718L19.8793 30.4388ZM28.6121 26.1207C27.8156 26.1207 27.0704 26.4362 26.5557 26.9903V23.989H24.9254V33.0944H26.4205V32.2199C27.0457 32.9344 27.7073 33.136 28.5775 33.136C30.5508 33.136 31.8817 31.4679 31.8817 29.6074C31.8821 27.6361 30.3772 26.1207 28.6121 26.1207ZM28.3823 31.7307C27.8373 31.7307 27.3145 31.513 26.9291 31.1255C26.5437 30.738 26.3272 30.2125 26.3272 29.6645C26.3272 29.1165 26.5437 28.5909 26.9291 28.2034C27.3145 27.8159 27.8373 27.5983 28.3823 27.5983C28.9273 27.5983 29.4501 27.8159 29.8355 28.2034C30.2209 28.5909 30.4374 29.1165 30.4374 29.6645C30.4374 30.2125 30.2209 30.738 29.8355 31.1255C29.4501 31.513 28.9273 31.7307 28.3823 31.7307ZM37.7483 26.4427V26.996C37.2336 26.4415 36.4887 26.1261 35.6918 26.1261C33.9271 26.1261 32.4218 27.6414 32.4218 29.6131C32.4218 31.4733 33.7532 33.1418 35.726 33.1418C36.5962 33.1418 37.2579 32.9397 37.8831 32.2252V33.1001H39.3781V26.4427H37.7483ZM35.922 31.7307C35.377 31.7307 34.8543 31.513 34.4689 31.1255C34.0834 30.738 33.8669 30.2125 33.8669 29.6645C33.8669 29.1165 34.0834 28.5909 34.4689 28.2034C34.8543 27.8159 35.377 27.5983 35.922 27.5983C36.4671 27.5983 36.9898 27.8159 37.3752 28.2034C37.7606 28.5909 37.9771 29.1165 37.9771 29.6645C37.9771 30.2125 37.7606 30.738 37.3752 31.1255C36.9898 31.513 36.4671 31.7307 35.922 31.7307Z" fill="black"/>
</svg>
