<svg width="113" height="31" viewBox="0 0 113 31" fill="none" xmlns="http://www.w3.org/2000/svg">
<path d="M76.305 8.31426H80.7173V9.17302C83.3725 8.08336 85.9522 7.56147 88.0427 9.92581C89.2335 9.41973 90.3172 8.75866 91.4923 8.48348C94.9119 7.66901 97.2919 9.74868 96.8656 13.2549C96.4393 16.7611 95.7645 20.253 95.2014 23.7671H90.7294C90.9732 22.2014 91.2013 20.6832 91.4624 19.1634C91.7361 17.4759 92.0271 15.7868 92.3024 14.1026C92.3001 14.0764 92.305 14.0502 92.3165 14.0266C92.4848 12.752 92.057 11.7857 91.2028 11.5405C90.2716 11.2796 89.1123 11.8015 88.7002 12.9512C88.2881 14.101 88.1339 15.3235 87.9137 16.527C87.5315 18.7838 87.1964 21.0691 86.7985 23.3274C86.7598 23.4394 86.6955 23.5406 86.6108 23.623C86.5261 23.7054 86.4234 23.7667 86.3108 23.8019C84.9974 23.8478 83.6698 23.8161 82.2651 23.8161C82.5404 22.067 82.8157 20.3637 83.0893 18.6604C83.3489 17.0188 83.6399 15.3915 83.8758 13.7578C84.0127 12.8674 83.6163 11.9928 82.9446 11.656C82.273 11.3191 81.4031 11.5326 80.7314 12.1921C79.8773 13.0366 79.8317 14.1563 79.6476 15.2302C79.1758 18.0769 78.7322 20.9236 78.2587 23.794H73.8024C74.6424 18.6114 75.4666 13.5016 76.305 8.31426ZM36.0727 22.2172C35.6008 25.1636 35.1415 27.9723 34.668 30.8269H30.196C31.4166 23.3069 32.6231 15.8343 33.8437 8.33008H38.3158C38.2701 8.7128 38.2088 9.06548 38.1789 9.37229C39.0944 9.01961 39.98 8.52935 40.9253 8.33008C44.1311 7.63896 46.7863 9.32642 47.6892 12.5037C48.9853 17.06 45.778 22.5082 41.155 23.5441C39.2926 23.9363 37.6142 23.552 36.0727 22.2172ZM43.1842 15.5876C43.1999 13.8479 42.5439 12.7029 41.4539 12.2886C40.3638 11.8742 39.1038 12.3344 38.1726 13.47C37.7388 13.9864 37.4137 14.586 37.2169 15.2324C37.02 15.8788 36.9556 16.5586 37.0275 17.2308C37.1344 18.3663 37.6079 19.3168 38.7578 19.7153C39.8589 20.0996 40.8026 19.6852 41.6127 18.934C42.5526 18.0688 43.1169 16.867 43.1842 15.5876ZM0.38623 19.9762C1.40867 19.1175 2.40123 18.2888 3.39379 17.4458C3.8358 17.9535 4.21804 18.4738 4.67578 18.904C5.77687 19.9636 7.07144 19.9778 8.45095 19.5034C9.77856 19.0432 10.6327 18.1528 10.8765 16.7247C11.0338 15.7584 10.7554 14.9455 9.91541 14.4078C9.32082 14.0251 8.67904 13.7167 8.05299 13.3798C7.67232 13.1805 7.27593 12.9955 6.89369 12.812C1.51564 10.1709 2.40123 4.24981 6.27865 1.5154C8.85836 -0.295422 11.5293 -0.0661041 14.216 1.2244C14.7948 1.50116 15.3296 1.88389 15.9463 2.25237C15.0764 3.34203 14.2679 4.35419 13.4735 5.3363C12.7562 5.02 12.0846 4.64677 11.3673 4.43168C9.67317 3.90979 8.14737 4.61514 7.36873 6.21245C6.84965 7.28629 7.07773 8.25258 8.10018 8.85197C9.12262 9.45136 10.1765 9.91 11.199 10.4619C13.107 11.4915 14.5022 12.9481 14.8011 15.2064C15.273 18.6747 13.5427 21.6811 10.3448 23.1139C6.55235 24.7808 2.67808 23.5979 0.38623 19.9762ZM18.2145 8.31426H22.7022C22.1674 11.5975 21.6641 14.8522 21.1293 18.0895C20.9153 19.3942 21.2866 19.9003 22.5796 20.0079C24.1966 20.1455 24.939 19.5334 25.1891 17.9519C25.6925 14.7589 26.2273 11.5674 26.7621 8.31426H31.2341C30.929 10.2627 30.6238 12.181 30.3029 14.1152C30.089 15.45 29.8594 16.7848 29.6313 18.1196C29.1279 21.1118 27.1428 23.1234 24.1824 23.6137C22.5025 23.8905 20.8398 23.9047 19.2212 23.2974C17.2518 22.5462 16.2152 20.6895 16.566 18.5861C17.115 15.2049 17.6498 11.7983 18.2145 8.31426ZM73.406 16.7089H63.8108C63.6897 18.3046 64.4526 19.9003 65.5977 20.2688C67.5057 20.9014 68.4967 19.6093 69.4279 18.2271C70.4818 18.6272 71.52 19.0179 72.5566 19.4085C71.2746 22.1413 67.4444 24.8568 63.6283 23.5836C60.9416 22.6933 59.6597 20.5914 59.4001 17.8586C58.9911 13.6392 62.1104 9.35805 66.186 8.43762C69.7268 7.64687 72.8413 9.70282 73.3746 13.3403C73.5271 14.4062 73.406 15.5417 73.406 16.7089ZM64.2166 13.946H69.7425C69.2848 12.2063 68.3835 11.2906 67.2257 11.2764C65.9579 11.2606 64.7215 12.3502 64.2166 13.946ZM107.977 18.2271C109.03 18.6272 110.052 19.0179 111.076 19.3942C109.259 23.1377 103.917 25.502 100.299 22.5699C98.2231 20.8824 97.5986 18.5798 98.0107 16.0336C98.5754 12.4262 100.559 9.81827 104.054 8.62107C108.068 7.24042 111.762 9.80245 112.021 14.0693C112.083 14.9281 112.037 15.7868 112.037 16.7089H102.344C102.178 18.2129 102.986 19.7928 104.116 20.2688C105.336 20.8049 106.39 20.2688 107.977 18.2271ZM108.191 13.9918C108.114 12.5685 107 11.3033 105.794 11.2606C104.482 11.2147 102.94 12.6112 102.805 13.9918H108.191ZM59.9743 8.29845C59.5779 9.64905 59.2114 10.8921 58.8291 12.1968C58.6651 12.1746 58.5024 12.144 58.3415 12.1051C56.2195 11.444 54.3886 12.5337 53.9906 14.7589C53.503 17.4759 53.0909 20.1913 52.6473 22.9083C52.6017 23.1835 52.5403 23.4603 52.49 23.7671H48.0384C48.8784 18.5956 49.7026 13.47 50.541 8.31426H54.9674C54.9533 8.66694 54.9218 9.00538 54.8919 9.40392C56.4335 8.23677 58.1276 8.08336 59.9743 8.29845Z" fill="black"/>
</svg>
