<svg width="106" height="42" viewBox="0 0 106 42" fill="none" xmlns="http://www.w3.org/2000/svg">
<path d="M7.06172 26.9913L1.20972 9.30327H6.35772L9.65772 20.6113H9.74572L13.0457 9.30327H17.7537L11.9017 26.9913V40.1033H7.06172V26.9913ZM24.3341 9.30327H37.5341V13.7033H29.1741V21.8433H35.8181V26.2433H29.1741V35.7033H37.5341V40.1033H24.3341V9.30327ZM44.7185 9.30327H57.9185V13.7033H49.5585V21.8433H56.2025V26.2433H49.5585V35.7033H57.9185V40.1033H44.7185V9.30327ZM64.2208 35.7913L73.1968 13.7033H64.6608V9.30327H78.3888V13.6153L69.4128 35.7033H78.3888V40.1033H64.2208V35.7913ZM89.9742 26.9913L84.1222 9.30327H89.2702L92.5702 20.6113H92.6582L95.9582 9.30327H100.666L94.8142 26.9913V40.1033H89.9742V26.9913Z" fill="black"/>
<rect x="64.77" y="22.9851" width="16.2429" height="5.10335" fill="black"/>
</svg>
