<svg width="15" height="19" viewBox="0 0 15 19" fill="none" xmlns="http://www.w3.org/2000/svg">
<path d="M12.5284 9.65139C12.5075 7.35859 14.4356 6.24313 14.5238 6.1912C13.4318 4.62402 11.7393 4.40989 11.1445 4.39282C9.723 4.24556 8.34412 5.23012 7.62 5.23012C6.88142 5.23012 5.76633 4.40704 4.56451 4.43123C3.01798 4.45471 1.57117 5.33611 0.777672 6.70482C-0.859919 9.4956 0.361409 13.5967 1.93035 15.8526C2.71518 16.9573 3.63225 18.1909 4.83263 18.1475C6.00698 18.0998 6.44565 17.4105 7.86282 17.4105C9.26699 17.4105 9.67891 18.1475 10.9031 18.1197C12.1635 18.0998 12.957 17.01 13.7144 15.8952C14.6213 14.629 14.9855 13.3819 15 13.3179C14.9704 13.3079 12.5523 12.3995 12.5284 9.65139Z" fill="black"/>
<path d="M10.2159 2.90886C10.8475 2.13132 11.2796 1.07348 11.1597 0C10.2455 0.0398377 9.10221 0.622464 8.44385 1.38294C7.86137 2.05306 7.34104 3.15145 7.47546 4.18438C8.50239 4.25979 9.55678 3.67431 10.2159 2.90886Z" fill="black"/>
</svg>
