<svg width="34" height="35" viewBox="0 0 34 35" fill="none" xmlns="http://www.w3.org/2000/svg">
<ellipse cx="17.125" cy="17.5" rx="16.625" ry="17.5" fill="white"/>
<path d="M27.1 17.9999C27.1 12.477 22.8467 7.9999 17.6 7.9999C12.3533 7.9999 8.1 12.477 8.1 17.9999C8.1 22.9912 11.574 27.1282 16.1156 27.8784V20.8905H13.7035V17.9999H16.1156V15.7968C16.1156 13.2905 17.5339 11.9062 19.7039 11.9062C20.7433 11.9062 21.8305 12.1015 21.8305 12.1015V14.5624H20.6325C19.4524 14.5624 19.0844 15.3332 19.0844 16.1241V17.9999H21.7191L21.2979 20.8905H19.0844V27.8784C23.626 27.1282 27.1 22.9912 27.1 17.9999Z" fill="black"/>
</svg>
