<svg width="40" height="40" viewBox="0 0 40 40" fill="none" xmlns="http://www.w3.org/2000/svg">
<path d="M39.9999 20.45C39.9999 19.1333 39.8808 17.8833 39.6765 16.6667H20.4426V24.1833H31.4553C30.9617 26.65 29.5149 28.7333 27.3702 30.15V35.15H33.9404C37.7872 31.6667 39.9999 26.5333 39.9999 20.45Z" fill="white"/>
<path d="M20.4426 7.91667C23.4553 7.91667 26.1447 8.93334 28.2723 10.9167L34.0936 5.21667C30.5702 1.98334 25.9574 0 20.4426 0C12.4596 0 5.56601 4.5 2.21283 11.0333L8.98728 16.1833C10.6043 11.4333 15.1149 7.91667 20.4426 7.91667Z" fill="white"/>
<path fill-rule="evenodd" clip-rule="evenodd" d="M20.4426 40C12.4596 40 5.56601 35.5 2.21283 28.9667L8.98728 23.8167C10.6043 28.5667 15.1149 32.0833 20.4426 32.0833C23.2 32.0833 25.5319 31.35 27.3702 30.15L33.9404 35.15C30.5702 38.2 25.9574 40 20.4426 40ZM8.98728 16.1833V11.0333H2.21283L8.98728 16.1833Z" fill="white"/>
<path d="M2.21283 23.8167H8.98728C8.56175 22.6167 8.34047 21.3333 8.34047 20C8.34047 18.6667 8.57877 17.3833 8.98728 16.1833L2.21283 11.0333C0.817086 13.7333 0.0170898 16.7667 0.0170898 20C0.0170898 23.2333 0.817086 26.2667 2.21283 28.9667V23.8167Z" fill="white"/>
<path d="M8.98728 23.8167H2.21283V28.9667L8.98728 23.8167Z" fill="white"/>
</svg>
