<svg width="34" height="35" viewBox="0 0 34 35" fill="none" xmlns="http://www.w3.org/2000/svg">
<ellipse cx="17.125" cy="17.5" rx="16.625" ry="17.5" fill="white"/>
<path fill-rule="evenodd" clip-rule="evenodd" d="M17.6 8C15.0198 8 14.6968 8.01133 13.6835 8.06C12.672 8.10867 11.9811 8.278 11.3769 8.52533C10.7435 8.776 10.1691 9.16933 9.69411 9.67867C9.21101 10.1781 8.83712 10.7823 8.59844 11.4493C8.36474 12.0853 8.20324 12.8133 8.15701 13.878C8.11141 14.944 8.10001 15.2833 8.10001 18C8.10001 20.7167 8.11077 21.056 8.15701 22.1227C8.20324 23.1873 8.36411 23.9147 8.59907 24.5507C8.83721 25.2173 9.21087 25.822 9.69474 26.322C10.1692 26.8305 10.7432 27.2241 11.3769 27.4753C11.9811 27.722 12.672 27.8913 13.6835 27.94C14.6968 27.9887 15.0198 28 17.6 28C20.1802 28 20.5032 27.9887 21.5165 27.94C22.528 27.8913 23.2189 27.722 23.8231 27.4747C24.4565 27.224 25.0309 26.8307 25.5059 26.3213C25.989 25.8219 26.3629 25.2177 26.6016 24.5507C26.8359 23.9147 26.9968 23.1873 27.043 22.1227C27.0892 21.056 27.1 20.716 27.1 18C27.1 15.284 27.0892 14.944 27.043 13.8773C26.9968 12.8127 26.8359 12.0853 26.6009 11.4493C26.3624 10.782 25.9885 10.1775 25.5053 9.678C25.0308 9.16948 24.4568 8.77591 23.8231 8.52467C23.2189 8.27867 22.5273 8.10867 21.5159 8.06C20.5032 8.012 20.1808 8 17.6 8ZM17.6 9.802C20.1365 9.802 20.4373 9.812 21.4393 9.86C22.3652 9.90467 22.8681 10.0667 23.2031 10.2047C23.6464 10.3853 23.9631 10.6027 24.2956 10.952C24.6281 11.302 24.8339 11.6353 25.0056 12.102C25.136 12.4547 25.2906 12.984 25.333 13.9587C25.3786 15.0133 25.3881 15.33 25.3881 18C25.3881 20.67 25.3786 20.9867 25.333 22.0413C25.2906 23.016 25.1367 23.5453 25.0056 23.898C24.8535 24.3324 24.6109 24.7253 24.2956 25.048C23.9891 25.38 23.6158 25.6354 23.2031 25.7953C22.8681 25.9327 22.3652 26.0953 21.4393 26.14C20.4373 26.188 20.1371 26.198 17.6 26.198C15.0629 26.198 14.7627 26.188 13.7607 26.14C12.8348 26.0953 12.3319 25.9333 11.9969 25.7953C11.5843 25.6353 11.2109 25.3799 10.9044 25.048C10.5891 24.7253 10.3465 24.3323 10.1944 23.898C10.064 23.5453 9.90944 23.016 9.86701 22.0413C9.82141 20.9867 9.81191 20.67 9.81191 18C9.81191 15.33 9.82141 15.0133 9.86701 13.9587C9.90944 12.984 10.0633 12.4547 10.1944 12.102C10.3661 11.6353 10.5725 11.302 10.9044 10.952C11.2109 10.62 11.5842 10.3647 11.9969 10.2047C12.3319 10.0673 12.8348 9.90467 13.7607 9.86C14.7627 9.812 15.0635 9.802 17.6 9.802Z" fill="black"/>
<path fill-rule="evenodd" clip-rule="evenodd" d="M17.6 21.3367C17.1838 21.3367 16.7716 21.2504 16.387 21.0827C16.0024 20.915 15.653 20.6692 15.3586 20.3594C15.0643 20.0495 14.8308 19.6817 14.6715 19.2769C14.5122 18.8721 14.4302 18.4382 14.4302 18C14.4302 17.5618 14.5122 17.1279 14.6715 16.7231C14.8308 16.3183 15.0643 15.9505 15.3586 15.6406C15.653 15.3308 16.0024 15.085 16.387 14.9173C16.7716 14.7496 17.1838 14.6633 17.6 14.6633C18.4407 14.6633 19.247 15.0149 19.8414 15.6406C20.4359 16.2664 20.7699 17.1151 20.7699 18C20.7699 18.8849 20.4359 19.7336 19.8414 20.3594C19.247 20.9851 18.4407 21.3367 17.6 21.3367ZM17.6 12.86C16.305 12.86 15.063 13.4015 14.1472 14.3655C13.2315 15.3294 12.717 16.6368 12.717 18C12.717 19.3632 13.2315 20.6706 14.1472 21.6345C15.063 22.5985 16.305 23.14 17.6 23.14C18.8951 23.14 20.1371 22.5985 21.0528 21.6345C21.9686 20.6706 22.483 19.3632 22.483 18C22.483 16.6368 21.9686 15.3294 21.0528 14.3655C20.1371 13.4015 18.8951 12.86 17.6 12.86ZM23.9036 12.7667C23.9036 13.0889 23.782 13.3979 23.5655 13.6258C23.3491 13.8537 23.0555 13.9817 22.7493 13.9817C22.4432 13.9817 22.1496 13.8537 21.9332 13.6258C21.7167 13.3979 21.5951 13.0889 21.5951 12.7667C21.5951 12.4444 21.7167 12.1354 21.9332 11.9075C22.1496 11.6797 22.4432 11.5517 22.7493 11.5517C23.0555 11.5517 23.3491 11.6797 23.5655 11.9075C23.782 12.1354 23.9036 12.4444 23.9036 12.7667Z" fill="black"/>
</svg>
