<svg width="34" height="35" viewBox="0 0 34 35" fill="none" xmlns="http://www.w3.org/2000/svg">
<ellipse cx="17.125" cy="17.5" rx="16.625" ry="17.5" fill="white"/>
<path d="M27.1 9.47059V26.5294C27.1 26.9194 26.9528 27.2935 26.6908 27.5693C26.4288 27.8451 26.0735 28 25.7029 28H9.49706C9.12653 28 8.77119 27.8451 8.50919 27.5693C8.24719 27.2935 8.1 26.9194 8.1 26.5294V9.47059C8.1 9.08056 8.24719 8.70651 8.50919 8.43073C8.77119 8.15494 9.12653 8 9.49706 8H25.7029C26.0735 8 26.4288 8.15494 26.6908 8.43073C26.9528 8.70651 27.1 9.08056 27.1 9.47059ZM13.6882 15.6471H10.8941V25.0588H13.6882V15.6471ZM13.9397 12.4118C13.9412 12.1893 13.901 11.9687 13.8215 11.7626C13.742 11.5564 13.6246 11.3688 13.4762 11.2104C13.3278 11.052 13.1512 10.9259 12.9565 10.8393C12.7618 10.7528 12.5528 10.7074 12.3415 10.7059H12.2912C11.8614 10.7059 11.4492 10.8856 11.1452 11.2055C10.8413 11.5254 10.6706 11.9593 10.6706 12.4118C10.6706 12.8642 10.8413 13.2981 11.1452 13.618C11.4492 13.9379 11.8614 14.1176 12.2912 14.1176C12.5025 14.1231 12.7129 14.0847 12.9101 14.0046C13.1074 13.9245 13.2877 13.8042 13.4408 13.6507C13.5939 13.4972 13.7167 13.3135 13.8024 13.11C13.888 12.9065 13.9346 12.6872 13.9397 12.4647V12.4118ZM24.3059 19.3412C24.3059 16.5118 22.5959 15.4118 20.8971 15.4118C20.3408 15.3824 19.787 15.5072 19.2909 15.7734C18.7947 16.0397 18.3736 16.4383 18.0694 16.9294H17.9912V15.6471H15.3647V25.0588H18.1588V20.0529C18.1184 19.5403 18.2719 19.0315 18.5858 18.6372C18.8997 18.2429 19.3487 17.9949 19.8353 17.9471H19.9415C20.83 17.9471 21.4894 18.5353 21.4894 20.0176V25.0588H24.2835L24.3059 19.3412Z" fill="black"/>
</svg>
