<svg width="41" height="40" viewBox="0 0 41 40" fill="none" xmlns="http://www.w3.org/2000/svg">
<path d="M0.0556641 19.9403C0.0556641 30.9254 9.09941 40 20.0471 40C30.9948 40 40.0385 30.9254 40.0385 19.9403C40.0385 8.95522 30.9948 0 20.0471 0C9.09941 0 0.0556641 8.95522 0.0556641 19.9403ZM27.4249 29.2537C22.784 26.3881 16.8342 25.6716 9.93238 27.2239C8.26643 27.4627 8.02844 25.0746 9.4564 24.8358C17.0722 23.0448 23.498 23.8806 28.7338 27.1045C30.0428 27.9403 28.7338 29.9701 27.4249 29.2537ZM29.4478 23.8806C24.093 20.5373 15.8822 19.5821 9.57539 21.4925C7.55245 22.0896 6.83847 18.9851 8.74242 18.5075C16.0012 16.3582 24.926 17.4328 31.1138 21.2537C32.7797 22.3284 31.1138 24.9552 29.4478 23.8806ZM8.62342 15.403C6.60048 16.1194 5.29151 12.6567 7.55245 11.8209C14.5732 9.67164 26.4729 10.0299 33.8507 14.4478C35.8736 15.5224 33.9697 18.8657 31.8278 17.6716C25.4019 13.8507 14.6922 13.4925 8.62342 15.403Z" fill="white"/>
</svg>
