<svg width="58" height="40" viewBox="0 0 58 40" fill="none" xmlns="http://www.w3.org/2000/svg">
<path fill-rule="evenodd" clip-rule="evenodd" d="M50.8718 1.19473C53.3307 1.85325 55.2633 3.78646 55.9214 6.24648C57.1109 10.7008 57.1157 20 57.1157 20C57.1157 20 57.1157 29.2992 55.9214 33.7536C55.2633 36.2136 53.3307 38.1468 50.8718 38.8052C46.4195 40 28.5578 40 28.5578 40C28.5578 40 10.6963 40 6.24378 38.8052C3.78484 38.1468 1.85245 36.2136 1.19422 33.7536C3.57475e-07 29.2992 0 20 0 20C0 20 3.57475e-07 10.7008 1.19422 6.24648C1.85245 3.78646 3.78484 1.85325 6.24378 1.19473C10.6963 3.57628e-07 28.5578 0 28.5578 0C28.5578 0 46.4195 3.57628e-07 50.8718 1.19473ZM37.6792 20.0008L22.8408 28.5708V11.4307L37.6792 20.0008Z" fill="white"/>
</svg>
