<svg width="587" height="148" viewBox="0 0 587 148" fill="none" xmlns="http://www.w3.org/2000/svg">
<path d="M29.44 115.6C20.9067 115.6 14.4533 113.2 10.08 108.4C5.70667 103.493 3.52 96.5067 3.52 87.44V81.04H20.16V88.72C20.16 95.9733 23.2 99.6 29.28 99.6C32.2667 99.6 34.5067 98.7467 36 97.04C37.6 95.2267 38.4 92.3467 38.4 88.4C38.4 83.7067 37.3333 79.6 35.2 76.08C33.0667 72.4533 29.12 68.1333 23.36 63.12C16.1067 56.72 11.04 50.96 8.16 45.84C5.28 40.6133 3.84 34.7467 3.84 28.24C3.84 19.3867 6.08 12.56 10.56 7.75999C15.04 2.85333 21.5467 0.399994 30.08 0.399994C38.5067 0.399994 44.8533 2.85333 49.12 7.75999C53.4933 12.56 55.68 19.4933 55.68 28.56V33.2H39.04V27.44C39.04 23.6 38.2933 20.8267 36.8 19.12C35.3067 17.3067 33.12 16.4 30.24 16.4C24.3733 16.4 21.44 19.9733 21.44 27.12C21.44 31.1733 22.5067 34.96 24.64 38.48C26.88 42 30.88 46.2667 36.64 51.28C44 57.68 49.0667 63.4933 51.84 68.72C54.6133 73.9467 56 80.08 56 87.12C56 96.2933 53.7067 103.333 49.12 108.24C44.64 113.147 38.08 115.6 29.44 115.6ZM79.2225 1.99999H103.063L121.303 114H103.703L100.503 91.76V92.08H80.5025L77.3025 114H60.9825L79.2225 1.99999ZM98.4225 76.88L90.5825 21.52H90.2625L82.5825 76.88H98.4225ZM129.841 1.99999H147.441V114H129.841V1.99999ZM160.623 1.99999H182.703L199.823 69.04H200.143V1.99999H215.823V114H197.743L176.623 32.24H176.303V114H160.623V1.99999ZM242.664 18H224.264V1.99999H278.664V18H260.264V114H242.664V18ZM287.185 1.99999H313.265C322.332 1.99999 328.945 4.13333 333.105 8.4C337.265 12.56 339.345 19.0133 339.345 27.76V34.64C339.345 46.2667 335.505 53.6267 327.825 56.72V57.04C332.092 58.32 335.078 60.9333 336.785 64.88C338.598 68.8267 339.505 74.1067 339.505 80.72V100.4C339.505 103.6 339.612 106.213 339.825 108.24C340.038 110.16 340.572 112.08 341.425 114H323.505C322.865 112.187 322.438 110.48 322.225 108.88C322.012 107.28 321.905 104.4 321.905 100.24V79.76C321.905 74.64 321.052 71.0667 319.345 69.04C317.745 67.0133 314.918 66 310.865 66H304.785V114H287.185V1.99999ZM311.185 50C314.705 50 317.318 49.0933 319.025 47.28C320.838 45.4667 321.745 42.4267 321.745 38.16V29.52C321.745 25.4667 320.998 22.5333 319.505 20.72C318.118 18.9067 315.878 18 312.785 18H304.785V50H311.185ZM377.156 115.6C368.516 115.6 361.903 113.147 357.316 108.24C352.73 103.333 350.436 96.4 350.436 87.44V28.56C350.436 19.6 352.73 12.6667 357.316 7.75999C361.903 2.85333 368.516 0.399994 377.156 0.399994C385.796 0.399994 392.41 2.85333 396.996 7.75999C401.583 12.6667 403.876 19.6 403.876 28.56V87.44C403.876 96.4 401.583 103.333 396.996 108.24C392.41 113.147 385.796 115.6 377.156 115.6ZM377.156 99.6C383.236 99.6 386.276 95.92 386.276 88.56V27.44C386.276 20.08 383.236 16.4 377.156 16.4C371.076 16.4 368.036 20.08 368.036 27.44V88.56C368.036 95.92 371.076 99.6 377.156 99.6ZM440.579 115.6C432.152 115.6 425.699 113.2 421.219 108.4C416.845 103.6 414.659 96.8267 414.659 88.08V27.92C414.659 19.1733 416.845 12.4 421.219 7.6C425.699 2.79999 432.152 0.399994 440.579 0.399994C449.005 0.399994 455.405 2.79999 459.779 7.6C464.259 12.4 466.499 19.1733 466.499 27.92V39.76H449.859V26.8C449.859 19.8667 446.925 16.4 441.059 16.4C435.192 16.4 432.259 19.8667 432.259 26.8V89.36C432.259 96.1867 435.192 99.6 441.059 99.6C446.925 99.6 449.859 96.1867 449.859 89.36V72.24H466.499V88.08C466.499 96.8267 464.259 103.6 459.779 108.4C455.405 113.2 449.005 115.6 440.579 115.6ZM477.029 1.99999H494.629V49.2L517.029 1.99999H534.629L513.669 43.12L534.949 114H516.549L501.669 64.08L494.629 78.32V114H477.029V1.99999Z" fill="url(#paint0_linear_1326_49)"/>
<rect y="128" width="587" height="20" fill="url(#paint1_linear_1326_49)"/>
<path d="M567 94H587V114H567V94Z" fill="#F6F096"/>
<defs>
<linearGradient id="paint0_linear_1326_49" x1="0" y1="58" x2="534" y2="58" gradientUnits="userSpaceOnUse">
<stop stop-color="#A5F5D8"/>
<stop offset="0.505" stop-color="#CAF3BA"/>
<stop offset="1" stop-color="#F6F096"/>
</linearGradient>
<linearGradient id="paint1_linear_1326_49" x1="0" y1="138" x2="587" y2="138" gradientUnits="userSpaceOnUse">
<stop stop-color="#A5F5D8"/>
<stop offset="0.505" stop-color="#CAF3BA"/>
<stop offset="1" stop-color="#F6F096"/>
</linearGradient>
</defs>
</svg>
