<svg width="60" height="145" viewBox="0 0 60 145" fill="none" xmlns="http://www.w3.org/2000/svg">
<rect y="125" width="60" height="20" fill="url(#paint0_linear_1332_54)"/>
<path d="M29.44 117.6C20.9067 117.6 14.4533 115.2 10.08 110.4C5.70667 105.493 3.52 98.5067 3.52 89.44V83.04H20.16V90.72C20.16 97.9733 23.2 101.6 29.28 101.6C32.2667 101.6 34.5067 100.747 36 99.04C37.6 97.2267 38.4 94.3467 38.4 90.4C38.4 85.7067 37.3333 81.6 35.2 78.08C33.0667 74.4533 29.12 70.1333 23.36 65.12C16.1067 58.72 11.04 52.96 8.16 47.84C5.28 42.6133 3.84 36.7467 3.84 30.24C3.84 21.3867 6.08 14.56 10.56 9.75999C15.04 4.85333 21.5467 2.39999 30.08 2.39999C38.5067 2.39999 44.8533 4.85333 49.12 9.75999C53.4933 14.56 55.68 21.4933 55.68 30.56V35.2H39.04V29.44C39.04 25.6 38.2933 22.8267 36.8 21.12C35.3067 19.3067 33.12 18.4 30.24 18.4C24.3733 18.4 21.44 21.9733 21.44 29.12C21.44 33.1733 22.5067 36.96 24.64 40.48C26.88 44 30.88 48.2667 36.64 53.28C44 59.68 49.0667 65.4933 51.84 70.72C54.6133 75.9467 56 82.08 56 89.12C56 98.2933 53.7067 105.333 49.12 110.24C44.64 115.147 38.08 117.6 29.44 117.6Z" fill="url(#paint1_linear_1332_54)"/>
<defs>
<linearGradient id="paint0_linear_1332_54" x1="0" y1="135" x2="60" y2="135" gradientUnits="userSpaceOnUse">
<stop stop-color="#A8F4D5"/>
<stop offset="0.91" stop-color="#A8F4D5"/>
<stop offset="1" stop-color="#B2F4CD"/>
</linearGradient>
<linearGradient id="paint1_linear_1332_54" x1="4" y1="60" x2="56" y2="60" gradientUnits="userSpaceOnUse">
<stop stop-color="#ABF4D2"/>
<stop offset="0.905" stop-color="#ABF4D2"/>
<stop offset="1" stop-color="#B2F4CD"/>
</linearGradient>
</defs>
</svg>
