<svg width="41" height="40" viewBox="0 0 41 40" fill="none" xmlns="http://www.w3.org/2000/svg">
<path fill-rule="evenodd" clip-rule="evenodd" d="M20.0857 0C14.656 0 13.9763 0.0226667 11.8439 0.12C9.71545 0.217333 8.2614 0.556 6.98995 1.05067C5.65719 1.552 4.44837 2.33867 3.4488 3.35733C2.4322 4.35618 1.64538 5.56466 1.14312 6.89867C0.651333 8.17067 0.311478 9.62667 0.214187 11.756C0.118228 13.888 0.0942383 14.5667 0.0942383 20C0.0942383 25.4333 0.116895 26.112 0.214187 28.2453C0.311478 30.3747 0.65 31.8293 1.14445 33.1013C1.64557 34.4347 2.4319 35.644 3.45013 36.644C4.44858 37.661 5.65653 38.4482 6.98995 38.9507C8.2614 39.444 9.71545 39.7827 11.8439 39.88C13.9763 39.9773 14.656 40 20.0857 40C25.5153 40 26.195 39.9773 28.3275 39.88C30.4559 39.7827 31.9099 39.444 33.1814 38.9493C34.5141 38.448 35.723 37.6613 36.7225 36.6427C37.7391 35.6438 38.526 34.4353 39.0282 33.1013C39.5213 31.8293 39.8599 30.3747 39.9571 28.2453C40.0544 26.112 40.0771 25.432 40.0771 20C40.0771 14.568 40.0544 13.888 39.9571 11.7547C39.8599 9.62533 39.5213 8.17067 39.0269 6.89867C38.525 5.56409 37.7381 4.35509 36.7212 3.356C35.7228 2.33896 34.5148 1.55181 33.1814 1.04933C31.9099 0.557333 30.4546 0.217333 28.3261 0.12C26.195 0.024 25.5167 0 20.0857 0ZM20.0857 3.604C25.4234 3.604 26.0564 3.624 28.1649 3.72C30.1134 3.80933 31.1716 4.13333 31.8766 4.40933C32.8095 4.77067 33.4759 5.20533 34.1756 5.904C34.8753 6.604 35.3085 7.27067 35.6697 8.204C35.9442 8.90933 36.2694 9.968 36.3587 11.9173C36.4546 14.0267 36.4746 14.66 36.4746 20C36.4746 25.34 36.4546 25.9733 36.3587 28.0827C36.2694 30.032 35.9455 31.0907 35.6697 31.796C35.3497 32.6647 34.8392 33.4507 34.1756 34.096C33.5307 34.76 32.745 35.2707 31.8766 35.5907C31.1716 35.8653 30.1134 36.1907 28.1649 36.28C26.0564 36.376 25.4247 36.396 20.0857 36.396C14.7466 36.396 14.1149 36.376 12.0065 36.28C10.058 36.1907 8.99975 35.8667 8.29472 35.5907C7.42637 35.2706 6.64077 34.7598 5.99571 34.096C5.33223 33.4506 4.82172 32.6647 4.50168 31.796C4.22713 31.0907 3.90194 30.032 3.81264 28.0827C3.71669 25.9733 3.69669 25.34 3.69669 20C3.69669 14.66 3.71669 14.0267 3.81264 11.9173C3.90194 9.968 4.2258 8.90933 4.50168 8.204C4.86286 7.27067 5.29734 6.604 5.99571 5.904C6.64069 5.24006 7.42631 4.7293 8.29472 4.40933C8.99975 4.13467 10.058 3.80933 12.0065 3.72C14.1149 3.624 14.748 3.604 20.0857 3.604Z" fill="white"/>
<path fill-rule="evenodd" clip-rule="evenodd" d="M20.0857 26.6733C19.2097 26.6733 18.3423 26.5007 17.533 26.1654C16.7237 25.83 15.9884 25.3384 15.369 24.7188C14.7496 24.0991 14.2582 23.3634 13.923 22.5538C13.5878 21.7441 13.4152 20.8764 13.4152 20C13.4152 19.1236 13.5878 18.2559 13.923 17.4462C14.2582 16.6366 14.7496 15.9009 15.369 15.2812C15.9884 14.6616 16.7237 14.17 17.533 13.8346C18.3423 13.4993 19.2097 13.3267 20.0857 13.3267C21.8548 13.3267 23.5515 14.0297 24.8024 15.2812C26.0534 16.5327 26.7562 18.2301 26.7562 20C26.7562 21.7699 26.0534 23.4673 24.8024 24.7188C23.5515 25.9703 21.8548 26.6733 20.0857 26.6733ZM20.0857 9.72C17.3604 9.72 14.7468 10.8031 12.8198 12.7309C10.8927 14.6588 9.8101 17.2736 9.8101 20C9.8101 22.7264 10.8927 25.3412 12.8198 27.2691C14.7468 29.1969 17.3604 30.28 20.0857 30.28C22.811 30.28 25.4246 29.1969 27.3516 27.2691C29.2787 25.3412 30.3613 22.7264 30.3613 20C30.3613 17.2736 29.2787 14.6588 27.3516 12.7309C25.4246 10.8031 22.811 9.72 20.0857 9.72ZM33.3507 9.53333C33.3507 10.1778 33.0948 10.7959 32.6393 11.2516C32.1837 11.7073 31.5659 11.9633 30.9217 11.9633C30.2775 11.9633 29.6597 11.7073 29.2042 11.2516C28.7487 10.7959 28.4928 10.1778 28.4928 9.53333C28.4928 8.88886 28.7487 8.27078 29.2042 7.81506C29.6597 7.35935 30.2775 7.10333 30.9217 7.10333C31.5659 7.10333 32.1837 7.35935 32.6393 7.81506C33.0948 8.27078 33.3507 8.88886 33.3507 9.53333Z" fill="white"/>
</svg>
