<svg width="34" height="35" viewBox="0 0 34 35" fill="none" xmlns="http://www.w3.org/2000/svg">
<ellipse cx="17.125" cy="17.5" rx="16.625" ry="17.5" fill="white"/>
<path d="M27.1 10.9246C26.4013 11.2505 25.6507 11.4707 24.8616 11.5702C25.6666 11.0629 26.2841 10.2578 26.5753 9.29948C25.8222 9.76984 24.988 10.1116 24.1001 10.2948C23.3889 9.49855 22.3764 9 21.2551 9C19.1029 9 17.3573 10.8374 17.3573 13.1046C17.3573 13.4253 17.3925 13.7371 17.4578 14.0383C14.2169 13.8666 11.3459 12.2326 9.42296 9.75046C9.08825 10.3582 8.89579 11.0629 8.89579 11.8134C8.89579 13.2368 9.58446 14.4937 10.6296 15.2292C9.9903 15.2072 9.38949 15.0231 8.86399 14.7157V14.7685C8.86399 16.7565 10.207 18.4151 11.991 18.7921C11.663 18.8855 11.3191 18.9348 10.9643 18.9348C10.7133 18.9348 10.4681 18.9102 10.2305 18.8626C10.7267 20.4921 12.1659 21.6795 13.8721 21.7112C12.5375 22.8122 10.8564 23.4684 9.03051 23.4684C8.71588 23.4684 8.40543 23.449 8.10001 23.4112C9.82545 24.5765 11.8739 25.2547 14.0746 25.2547C21.2459 25.2547 25.1662 19.0026 25.1662 13.5803C25.1662 13.4041 25.162 13.2262 25.1545 13.05C25.916 12.4704 26.577 11.7491 27.0983 10.9272L27.1 10.9246Z" fill="black"/>
</svg>
