<svg width="25" height="60" viewBox="0 0 25 60" fill="none" xmlns="http://www.w3.org/2000/svg">
<rect y="55" width="25" height="5" fill="url(#paint0_linear_1331_49)"/>
<path d="M12.7986 49.65C9.37526 49.65 6.75359 48.675 4.93359 46.725C3.15693 44.775 2.26859 42.0233 2.26859 38.47V14.03C2.26859 10.4767 3.15693 7.725 4.93359 5.775C6.75359 3.825 9.37526 2.85 12.7986 2.85C16.2219 2.85 18.8219 3.825 20.5986 5.775C22.4186 7.725 23.3286 10.4767 23.3286 14.03V18.84H16.5686V13.575C16.5686 10.7583 15.3769 9.35 12.9936 9.35C10.6103 9.35 9.41859 10.7583 9.41859 13.575V38.99C9.41859 41.7633 10.6103 43.15 12.9936 43.15C15.3769 43.15 16.5686 41.7633 16.5686 38.99V32.035H23.3286V38.47C23.3286 42.0233 22.4186 44.775 20.5986 46.725C18.8219 48.675 16.2219 49.65 12.7986 49.65Z" fill="url(#paint1_linear_1331_49)"/>
<defs>
<linearGradient id="paint0_linear_1331_49" x1="9.31323e-08" y1="57.5" x2="25" y2="57.5" gradientUnits="userSpaceOnUse">
<stop stop-color="#E5F1A3"/>
<stop offset="0.905" stop-color="#E5F1A3"/>
<stop offset="1" stop-color="#EEF09C"/>
</linearGradient>
<linearGradient id="paint1_linear_1331_49" x1="2.5" y1="26" x2="23.75" y2="26" gradientUnits="userSpaceOnUse">
<stop stop-color="#E5F1A3"/>
<stop offset="0.9" stop-color="#E5F1A3"/>
<stop offset="1" stop-color="#EEF09C"/>
</linearGradient>
</defs>
</svg>
