<svg width="25" height="60" viewBox="0 0 25 60" fill="none" xmlns="http://www.w3.org/2000/svg">
<rect y="55" width="25" height="5" fill="url(#paint0_linear_1331_47)"/>
<path d="M2.05709 3.5H12.6521C16.3354 3.5 19.0221 4.36666 20.7121 6.1C22.4021 7.79 23.2471 10.4117 23.2471 13.965V16.76C23.2471 21.4833 21.6871 24.4733 18.5671 25.73V25.86C20.3004 26.38 21.5138 27.4417 22.2071 29.045C22.9438 30.6483 23.3121 32.7933 23.3121 35.48V43.475C23.3121 44.775 23.3554 45.8367 23.4421 46.66C23.5288 47.44 23.7454 48.22 24.0921 49H16.8121C16.5521 48.2633 16.3788 47.57 16.2921 46.92C16.2054 46.27 16.1621 45.1 16.1621 43.41V35.09C16.1621 33.01 15.8154 31.5583 15.1221 30.735C14.4721 29.9117 13.3238 29.5 11.6771 29.5H9.20709V49H2.05709V3.5ZM11.8071 23C13.2371 23 14.2988 22.6317 14.9921 21.895C15.7288 21.1583 16.0971 19.9233 16.0971 18.19V14.68C16.0971 13.0333 15.7938 11.8417 15.1871 11.105C14.6238 10.3683 13.7138 10 12.4571 10H9.20709V23H11.8071Z" fill="url(#paint1_linear_1331_47)"/>
<defs>
<linearGradient id="paint0_linear_1331_47" x1="0" y1="57.5" x2="25" y2="57.5" gradientUnits="userSpaceOnUse">
<stop stop-color="#CDF2B7"/>
<stop offset="0.9" stop-color="#CDF2B7"/>
<stop offset="1" stop-color="#DBF2AC"/>
</linearGradient>
<linearGradient id="paint1_linear_1331_47" x1="2.5" y1="26" x2="21.5385" y2="26" gradientUnits="userSpaceOnUse">
<stop stop-color="#CEF2B6"/>
<stop offset="0.9" stop-color="#CEF2B6"/>
<stop offset="1" stop-color="#DBF2AC"/>
</linearGradient>
</defs>
</svg>
