<svg width="25" height="60" viewBox="0 0 25 60" fill="none" xmlns="http://www.w3.org/2000/svg">
<rect y="55" width="25" height="5" fill="url(#paint0_linear_1332_54)"/>
<path d="M12.3677 49.65C8.90105 49.65 6.27938 48.675 4.50271 46.725C2.72605 44.7317 1.83771 41.8933 1.83771 38.21V35.61H8.59771V38.73C8.59771 41.6767 9.83272 43.15 12.3027 43.15C13.516 43.15 14.426 42.8033 15.0327 42.11C15.6827 41.3733 16.0077 40.2033 16.0077 38.6C16.0077 36.6933 15.5744 35.025 14.7077 33.595C13.841 32.1217 12.2377 30.3667 9.89772 28.33C6.95105 25.73 4.89271 23.39 3.72272 21.31C2.55271 19.1867 1.96771 16.8033 1.96771 14.16C1.96771 10.5633 2.87771 7.79 4.69771 5.84C6.51771 3.84666 9.16105 2.85 12.6277 2.85C16.051 2.85 18.6294 3.84666 20.3627 5.84C22.1394 7.79 23.0277 10.6067 23.0277 14.29V16.175H16.2677V13.835C16.2677 12.275 15.9644 11.1483 15.3577 10.455C14.751 9.71833 13.8627 9.35 12.6927 9.35C10.3094 9.35 9.11772 10.8017 9.11772 13.705C9.11772 15.3517 9.55105 16.89 10.4177 18.32C11.3277 19.75 12.9527 21.4833 15.2927 23.52C18.2827 26.12 20.341 28.4817 21.4677 30.605C22.5944 32.7283 23.1577 35.22 23.1577 38.08C23.1577 41.8067 22.226 44.6667 20.3627 46.66C18.5427 48.6533 15.8777 49.65 12.3677 49.65Z" fill="url(#paint1_linear_1332_54)"/>
<defs>
<linearGradient id="paint0_linear_1332_54" x1="0" y1="57.5" x2="25" y2="57.5" gradientUnits="userSpaceOnUse">
<stop stop-color="#A8F4D5"/>
<stop offset="0.91" stop-color="#A8F4D5"/>
<stop offset="1" stop-color="#B2F4CD"/>
</linearGradient>
<linearGradient id="paint1_linear_1332_54" x1="1.66667" y1="26" x2="23.3333" y2="26" gradientUnits="userSpaceOnUse">
<stop stop-color="#ABF4D2"/>
<stop offset="0.905" stop-color="#ABF4D2"/>
<stop offset="1" stop-color="#B2F4CD"/>
</linearGradient>
</defs>
</svg>
