<svg width="118" height="38" viewBox="0 0 118 38" fill="none" xmlns="http://www.w3.org/2000/svg">
<g filter="url(#filter0_f_1227_309)">
<path d="M9.52 26.3C7.92 26.3 6.71 25.85 5.89 24.95C5.07 24.03 4.66 22.72 4.66 21.02V19.82H7.78V21.26C7.78 22.62 8.35 23.3 9.49 23.3C10.05 23.3 10.47 23.14 10.75 22.82C11.05 22.48 11.2 21.94 11.2 21.2C11.2 20.32 11 19.55 10.6 18.89C10.2 18.21 9.46 17.4 8.38 16.46C7.02 15.26 6.07 14.18 5.53 13.22C4.99 12.24 4.72 11.14 4.72 9.92C4.72 8.26 5.14 6.98 5.98 6.08C6.82 5.16 8.04 4.7 9.64 4.7C11.22 4.7 12.41 5.16 13.21 6.08C14.03 6.98 14.44 8.28 14.44 9.98V10.85H11.32V9.77C11.32 9.05 11.18 8.53 10.9 8.21C10.62 7.87 10.21 7.7 9.67 7.7C8.57 7.7 8.02 8.37 8.02 9.71C8.02 10.47 8.22 11.18 8.62 11.84C9.04 12.5 9.79 13.3 10.87 14.24C12.25 15.44 13.2 16.53 13.72 17.51C14.24 18.49 14.5 19.64 14.5 20.96C14.5 22.68 14.07 24 13.21 24.92C12.37 25.84 11.14 26.3 9.52 26.3ZM18.8542 5H23.3242L26.7442 26H23.4442L22.8442 21.83V21.89H19.0942L18.4942 26H15.4342L18.8542 5ZM22.4542 19.04L20.9842 8.66H20.9242L19.4842 19.04H22.4542ZM28.3452 5H31.6452V26H28.3452V5ZM34.1167 5H38.2567L41.4667 17.57H41.5267V5H44.4667V26H41.0767L37.1167 10.67H37.0567V26H34.1167V5ZM49.4995 8H46.0495V5H56.2495V8H52.7995V26H49.4995V8ZM57.8472 5H62.7372C64.4372 5 65.6772 5.4 66.4572 6.2C67.2372 6.98 67.6272 8.19 67.6272 9.83V11.12C67.6272 13.3 66.9072 14.68 65.4672 15.26V15.32C66.2672 15.56 66.8272 16.05 67.1472 16.79C67.4872 17.53 67.6572 18.52 67.6572 19.76V23.45C67.6572 24.05 67.6772 24.54 67.7172 24.92C67.7572 25.28 67.8572 25.64 68.0172 26H64.6572C64.5372 25.66 64.4572 25.34 64.4172 25.04C64.3772 24.74 64.3572 24.2 64.3572 23.42V19.58C64.3572 18.62 64.1972 17.95 63.8772 17.57C63.5772 17.19 63.0472 17 62.2872 17H61.1472V26H57.8472V5ZM62.3472 14C63.0072 14 63.4972 13.83 63.8172 13.49C64.1572 13.15 64.3272 12.58 64.3272 11.78V10.16C64.3272 9.4 64.1872 8.85 63.9072 8.51C63.6472 8.17 63.2272 8 62.6472 8H61.1472V14H62.3472ZM74.7168 26.3C73.0968 26.3 71.8568 25.84 70.9968 24.92C70.1368 24 69.7068 22.7 69.7068 21.02V9.98C69.7068 8.3 70.1368 7 70.9968 6.08C71.8568 5.16 73.0968 4.7 74.7168 4.7C76.3368 4.7 77.5768 5.16 78.4368 6.08C79.2968 7 79.7268 8.3 79.7268 9.98V21.02C79.7268 22.7 79.2968 24 78.4368 24.92C77.5768 25.84 76.3368 26.3 74.7168 26.3ZM74.7168 23.3C75.8568 23.3 76.4268 22.61 76.4268 21.23V9.77C76.4268 8.39 75.8568 7.7 74.7168 7.7C73.5768 7.7 73.0068 8.39 73.0068 9.77V21.23C73.0068 22.61 73.5768 23.3 74.7168 23.3ZM86.6085 26.3C85.0285 26.3 83.8185 25.85 82.9785 24.95C82.1585 24.05 81.7485 22.78 81.7485 21.14V9.86C81.7485 8.22 82.1585 6.95 82.9785 6.05C83.8185 5.15 85.0285 4.7 86.6085 4.7C88.1885 4.7 89.3885 5.15 90.2085 6.05C91.0485 6.95 91.4685 8.22 91.4685 9.86V12.08H88.3485V9.65C88.3485 8.35 87.7985 7.7 86.6985 7.7C85.5985 7.7 85.0485 8.35 85.0485 9.65V21.38C85.0485 22.66 85.5985 23.3 86.6985 23.3C87.7985 23.3 88.3485 22.66 88.3485 21.38V18.17H91.4685V21.14C91.4685 22.78 91.0485 24.05 90.2085 24.95C89.3885 25.85 88.1885 26.3 86.6085 26.3ZM93.4429 5H96.7429V13.85L100.943 5H104.243L100.313 12.71L104.303 26H100.853L98.0629 16.64L96.7429 19.31V26H93.4429V5ZM110.669 22.82H113.849V26H110.669V22.82Z" fill="white"/>
</g>
<path d="M9.52 26.3C7.92 26.3 6.71 25.85 5.89 24.95C5.07 24.03 4.66 22.72 4.66 21.02V19.82H7.78V21.26C7.78 22.62 8.35 23.3 9.49 23.3C10.05 23.3 10.47 23.14 10.75 22.82C11.05 22.48 11.2 21.94 11.2 21.2C11.2 20.32 11 19.55 10.6 18.89C10.2 18.21 9.46 17.4 8.38 16.46C7.02 15.26 6.07 14.18 5.53 13.22C4.99 12.24 4.72 11.14 4.72 9.92C4.72 8.26 5.14 6.98 5.98 6.08C6.82 5.16 8.04 4.7 9.64 4.7C11.22 4.7 12.41 5.16 13.21 6.08C14.03 6.98 14.44 8.28 14.44 9.98V10.85H11.32V9.77C11.32 9.05 11.18 8.53 10.9 8.21C10.62 7.87 10.21 7.7 9.67 7.7C8.57 7.7 8.02 8.37 8.02 9.71C8.02 10.47 8.22 11.18 8.62 11.84C9.04 12.5 9.79 13.3 10.87 14.24C12.25 15.44 13.2 16.53 13.72 17.51C14.24 18.49 14.5 19.64 14.5 20.96C14.5 22.68 14.07 24 13.21 24.92C12.37 25.84 11.14 26.3 9.52 26.3ZM18.8542 5H23.3242L26.7442 26H23.4442L22.8442 21.83V21.89H19.0942L18.4942 26H15.4342L18.8542 5ZM22.4542 19.04L20.9842 8.66H20.9242L19.4842 19.04H22.4542ZM28.3452 5H31.6452V26H28.3452V5ZM34.1167 5H38.2567L41.4667 17.57H41.5267V5H44.4667V26H41.0767L37.1167 10.67H37.0567V26H34.1167V5ZM49.4995 8H46.0495V5H56.2495V8H52.7995V26H49.4995V8ZM57.8472 5H62.7372C64.4372 5 65.6772 5.4 66.4572 6.2C67.2372 6.98 67.6272 8.19 67.6272 9.83V11.12C67.6272 13.3 66.9072 14.68 65.4672 15.26V15.32C66.2672 15.56 66.8272 16.05 67.1472 16.79C67.4872 17.53 67.6572 18.52 67.6572 19.76V23.45C67.6572 24.05 67.6772 24.54 67.7172 24.92C67.7572 25.28 67.8572 25.64 68.0172 26H64.6572C64.5372 25.66 64.4572 25.34 64.4172 25.04C64.3772 24.74 64.3572 24.2 64.3572 23.42V19.58C64.3572 18.62 64.1972 17.95 63.8772 17.57C63.5772 17.19 63.0472 17 62.2872 17H61.1472V26H57.8472V5ZM62.3472 14C63.0072 14 63.4972 13.83 63.8172 13.49C64.1572 13.15 64.3272 12.58 64.3272 11.78V10.16C64.3272 9.4 64.1872 8.85 63.9072 8.51C63.6472 8.17 63.2272 8 62.6472 8H61.1472V14H62.3472ZM74.7168 26.3C73.0968 26.3 71.8568 25.84 70.9968 24.92C70.1368 24 69.7068 22.7 69.7068 21.02V9.98C69.7068 8.3 70.1368 7 70.9968 6.08C71.8568 5.16 73.0968 4.7 74.7168 4.7C76.3368 4.7 77.5768 5.16 78.4368 6.08C79.2968 7 79.7268 8.3 79.7268 9.98V21.02C79.7268 22.7 79.2968 24 78.4368 24.92C77.5768 25.84 76.3368 26.3 74.7168 26.3ZM74.7168 23.3C75.8568 23.3 76.4268 22.61 76.4268 21.23V9.77C76.4268 8.39 75.8568 7.7 74.7168 7.7C73.5768 7.7 73.0068 8.39 73.0068 9.77V21.23C73.0068 22.61 73.5768 23.3 74.7168 23.3ZM86.6085 26.3C85.0285 26.3 83.8185 25.85 82.9785 24.95C82.1585 24.05 81.7485 22.78 81.7485 21.14V9.86C81.7485 8.22 82.1585 6.95 82.9785 6.05C83.8185 5.15 85.0285 4.7 86.6085 4.7C88.1885 4.7 89.3885 5.15 90.2085 6.05C91.0485 6.95 91.4685 8.22 91.4685 9.86V12.08H88.3485V9.65C88.3485 8.35 87.7985 7.7 86.6985 7.7C85.5985 7.7 85.0485 8.35 85.0485 9.65V21.38C85.0485 22.66 85.5985 23.3 86.6985 23.3C87.7985 23.3 88.3485 22.66 88.3485 21.38V18.17H91.4685V21.14C91.4685 22.78 91.0485 24.05 90.2085 24.95C89.3885 25.85 88.1885 26.3 86.6085 26.3ZM93.4429 5H96.7429V13.85L100.943 5H104.243L100.313 12.71L104.303 26H100.853L98.0629 16.64L96.7429 19.31V26H93.4429V5Z" fill="white"/>
<rect x="110" y="21" width="4" height="4" fill="#F6F096"/>
<g filter="url(#filter1_d_1227_309)">
<rect x="5" y="27" width="109" height="3" fill="url(#paint0_linear_1227_309)"/>
</g>
<defs>
<filter id="filter0_f_1227_309" x="0.660156" y="0.699951" width="117.189" height="29.6001" filterUnits="userSpaceOnUse" color-interpolation-filters="sRGB">
<feFlood flood-opacity="0" result="BackgroundImageFix"/>
<feBlend mode="normal" in="SourceGraphic" in2="BackgroundImageFix" result="shape"/>
<feGaussianBlur stdDeviation="2" result="effect1_foregroundBlur_1227_309"/>
</filter>
<filter id="filter1_d_1227_309" x="1" y="27" width="117" height="11" filterUnits="userSpaceOnUse" color-interpolation-filters="sRGB">
<feFlood flood-opacity="0" result="BackgroundImageFix"/>
<feColorMatrix in="SourceAlpha" type="matrix" values="0 0 0 0 0 0 0 0 0 0 0 0 0 0 0 0 0 0 127 0" result="hardAlpha"/>
<feOffset dy="4"/>
<feGaussianBlur stdDeviation="2"/>
<feComposite in2="hardAlpha" operator="out"/>
<feColorMatrix type="matrix" values="0 0 0 0 0 0 0 0 0 0 0 0 0 0 0 0 0 0 0.25 0"/>
<feBlend mode="normal" in2="BackgroundImageFix" result="effect1_dropShadow_1227_309"/>
<feBlend mode="normal" in="SourceGraphic" in2="effect1_dropShadow_1227_309" result="shape"/>
</filter>
<linearGradient id="paint0_linear_1227_309" x1="5" y1="28.5" x2="114" y2="28.5" gradientUnits="userSpaceOnUse">
<stop stop-color="#A5F5D8"/>
<stop offset="0.505" stop-color="#CAF3BA"/>
<stop offset="1" stop-color="#F6F096"/>
</linearGradient>
</defs>
</svg>
